<?xml version="1.0" encoding="iso-8859-1"?>
<!-- Generator: Adobe Illustrator 21.1.0, SVG Export Plug-In . SVG Version: 6.00 Build 0)  -->
<svg version="1.1" id="Calque_1" xmlns="http://www.w3.org/2000/svg" xmlns:xlink="http://www.w3.org/1999/xlink" x="0px" y="0px"
	 width="432px" height="432px" viewBox="0 0 432 432" enable-background="new 0 0 432 432" xml:space="preserve">
<g>
	<g>
		<path d="M139.764,172.626v74.016c0,0.346,0.314,0.623,0.696,0.623h147.578c0.387,0,0.696-0.277,0.696-0.623v-74.016
			c0-0.342-0.31-0.623-0.696-0.623H140.46C140.078,172.003,139.764,172.284,139.764,172.626z"/>
		<g>
			<path fill="#B3B3B3" d="M139.76,163.801v17.064h148.977v-17.064c0-0.379-0.313-0.692-0.7-0.692h-9.498v-5.183
				c0-0.379-0.313-0.692-0.7-0.692h-28.566c-0.379,0-0.692,0.313-0.692,0.692v5.183H176.33v-2.755c0-0.503-0.117-0.984-0.335-1.407
				c-0.51-1.013-1.567-1.713-2.777-1.713h-20.672c-1.21,0-2.267,0.7-2.777,1.713c-0.219,0.423-0.343,0.904-0.343,1.407v2.755h-8.966
				C140.081,163.108,139.76,163.422,139.76,163.801z"/>
			<path fill="#B3B3B3" d="M139.764,243.178v3.42c0,0.37,0.314,0.666,0.696,0.666h147.578c0.387,0,0.696-0.296,0.696-0.666v-3.42
				H139.764z"/>
		</g>
		<path fill="#999999" d="M190.523,157.979v22.886h43.925v-17.616c0-3.183,0-5.27,0-5.27l-15.57-11.009h-13.587L190.523,157.979z"/>
		<g>
			<rect x="175.427" y="187.672" fill="#4D4D4D" width="74.116" height="47.293"/>
			<path fill="#4D4D4D" d="M279.341,220.5c0,2.306-0.734,4.442-1.986,6.174c-0.743,1.026-1.656,1.91-2.701,2.616
				c-1.685,1.139-3.717,1.798-5.901,1.798c-2.184,0-4.216-0.659-5.901-1.798c-1.054-0.706-1.967-1.591-2.701-2.616
				c-1.252-1.732-1.986-3.868-1.986-6.174c0-2.183,0.659-4.216,1.798-5.901c0.706-1.054,1.591-1.967,2.616-2.701
				c1.741-1.252,3.868-1.986,6.174-1.986c2.306,0,4.442,0.734,6.174,1.986c1.026,0.734,1.911,1.647,2.616,2.701
				C278.683,216.283,279.341,218.316,279.341,220.5z"/>
			
				<ellipse transform="matrix(0.2589 -0.9659 0.9659 0.2589 -4.631 404.4459)" fill="#4D4D4D" cx="261.261" cy="205.241" rx="2.235" ry="2.235"/>
			
				<ellipse transform="matrix(0.2589 -0.9659 0.9659 0.2589 2.7994 398.7438)" fill="#4D4D4D" cx="261.261" cy="197.548" rx="2.235" ry="2.235"/>
			
				<ellipse transform="matrix(0.2589 -0.9659 0.9659 0.2589 10.1783 393.0825)" fill="#4D4D4D" cx="261.261" cy="189.908" rx="2.235" ry="2.235"/>
		</g>
		<g>
			<g>
				<rect x="248.581" y="160.776" width="29.959" height="2.333"/>
			</g>
			<path fill="#333333" d="M224.45,174.173h-23.786c-0.792,0-1.44-0.648-1.44-1.44v-11.306c0-0.792,0.648-1.44,1.44-1.44h23.786
				c0.792,0,1.44,0.648,1.44,1.44v11.306C225.89,173.525,225.242,174.173,224.45,174.173z"/>
			<circle cx="179.931" cy="172.692" r="2.823"/>
		</g>
	</g>
	<g>
		<path fill="#EDCAA9" d="M21.5,316.139c7.294-13.411,46.356-61.175,55.998-79.527c4.474-7.529-29.411-39.999-27.999-55.293
			c1.412-15.294,12-28.234,16.235-32.234c4.235-4,6.211,3.952,3.152,11.011s-5.035,24.988-0.564,24.047
			c4.47-0.941,7.294-31.999,10.353-41.411c3.059-9.411,22.317-23.73,25.499-25.657c6.975-4.224,12.147,3.54,6.03,8.481
			c-6.117,4.941-21.646,18.352-22.823,22.823s-3.765,35.293-0.941,35.293c2.823,0,3.529-35.293,10.353-40.94
			c6.823-5.647,27.567-18.091,48.94-14.588c14.356,2.353,0.239,10.637-7.055,10.872c-7.294,0.235-26.827,7.951-31.062,11.716
			c-4.235,3.765-7.059,38.352-1.647,38.587s5.412-20.705,9.647-25.646s20.941-22.823,47.293-18.117s4.71,12-4.937,11.529
			c-9.647-0.471-23.305,9.172-25.65,12.941c-7.761,12.47-6.383,43.373-4.941,47.999c4.474,14.353,22.82,25.882,34.117,25.882
			c12.474,0,11.764,14.353-10.353,12s-30.117-15.294-39.058-13.882s-31.529,58.822-29.411,74.116
			C59.146,316.139,21.5,316.139,21.5,316.139z"/>
		<path fill="#EDCAA9" d="M410.5,316.139c-7.294-13.411-46.356-61.175-55.998-79.527c-4.474-7.529,29.411-39.999,27.999-55.293
			s-12-28.234-16.235-32.234c-4.235-4-6.211,3.952-3.152,11.011c3.059,7.059,5.035,24.988,0.564,24.047
			c-4.47-0.941-7.294-31.999-10.353-41.411c-3.059-9.411-22.317-23.73-25.499-25.657c-6.975-4.224-12.147,3.54-6.03,8.481
			c6.117,4.941,21.646,18.352,22.823,22.823c1.176,4.47,3.765,35.293,0.941,35.293c-2.823,0-3.529-35.293-10.353-40.94
			s-27.567-18.091-48.94-14.588c-14.356,2.353-0.239,10.637,7.055,10.872c7.294,0.235,26.827,7.951,31.062,11.716
			c4.235,3.765,7.059,38.352,1.647,38.587s-5.412-20.705-9.647-25.646s-20.941-22.823-47.293-18.117s-4.71,12,4.937,11.529
			c9.647-0.471,23.305,9.172,25.65,12.941c7.761,12.47,6.383,43.373,4.941,47.999c-4.474,14.353-22.82,25.882-34.117,25.882
			c-12.474,0-11.764,14.353,10.353,12c22.117-2.353,30.117-15.294,39.058-13.882c8.941,1.412,31.529,58.822,29.411,74.116
			C372.854,316.139,410.5,316.139,410.5,316.139z"/>
	</g>
</g>
</svg>
